<svg xmlns="http://www.w3.org/2000/svg" viewBox="0 0 1400 600" width="1400" height="600">
<title>Independence Day 4th of July 2026 — Plantation, Florida</title>
<desc>Daytime 4th of July poster: American flag on pole, blue sky, clouds, fireworks bursts, bold serif text</desc>
<defs>
  <linearGradient id="sky" x1="0" y1="0" x2="0" y2="1">
    <stop offset="0%" stop-color="#0A2E8F"/>
    <stop offset="60%" stop-color="#1565C0"/>
    <stop offset="100%" stop-color="#2196F3"/>
  </linearGradient>
</defs>

<rect width="1400" height="600" fill="url(#sky)"/>

<rect x="0" y="555" width="1400" height="45" fill="#1B5E20"/>
<rect x="0" y="543" width="1400" height="14" fill="#2E7D32" opacity="0.85"/>

<circle cx="78" cy="60" r="42" fill="#FFF8DC" opacity="0.93"/>
<circle cx="78" cy="60" r="62" fill="#FFF8DC" opacity="0.14"/>

<g fill="white" opacity="0.92">
  <ellipse cx="240" cy="118" rx="85" ry="42"/>
  <ellipse cx="185" cy="136" rx="52" ry="30"/>
  <ellipse cx="296" cy="136" rx="52" ry="30"/>
  <ellipse cx="240" cy="148" rx="72" ry="25"/>
  <ellipse cx="660" cy="74" rx="75" ry="38"/>
  <ellipse cx="602" cy="92" rx="50" ry="27"/>
  <ellipse cx="718" cy="92" rx="50" ry="27"/>
  <ellipse cx="660" cy="104" rx="62" ry="22"/>
  <ellipse cx="1210" cy="108" rx="65" ry="33"/>
  <ellipse cx="1158" cy="124" rx="42" ry="24"/>
  <ellipse cx="1260" cy="124" rx="42" ry="24"/>
  <ellipse cx="1210" cy="136" rx="54" ry="19"/>
</g>

<rect x="852" y="0" width="7" height="580" fill="#B8960C"/>
<circle cx="855" cy="16" r="13" fill="#D4AF37"/>

<rect x="859" y="22" width="490" height="258" fill="#B22234"/>
<rect x="859" y="41.8"  width="490" height="19.8" fill="white"/>
<rect x="859" y="81.5"  width="490" height="19.8" fill="white"/>
<rect x="859" y="121.2" width="490" height="19.8" fill="white"/>
<rect x="859" y="160.9" width="490" height="19.8" fill="white"/>
<rect x="859" y="200.6" width="490" height="19.8" fill="white"/>
<rect x="859" y="240.3" width="490" height="19.8" fill="white"/>
<rect x="859" y="22" width="196" height="139" fill="#3C3B6E"/>

<g fill="white">
  <circle cx="863" cy="28" r="3.5"/><circle cx="900" cy="28" r="3.5"/><circle cx="937" cy="28" r="3.5"/><circle cx="974" cy="28" r="3.5"/><circle cx="1011" cy="28" r="3.5"/><circle cx="1048" cy="28" r="3.5"/>
  <circle cx="882" cy="44" r="3.5"/><circle cx="919" cy="44" r="3.5"/><circle cx="956" cy="44" r="3.5"/><circle cx="994" cy="44" r="3.5"/><circle cx="1031" cy="44" r="3.5"/>
  <circle cx="863" cy="60" r="3.5"/><circle cx="900" cy="60" r="3.5"/><circle cx="937" cy="60" r="3.5"/><circle cx="974" cy="60" r="3.5"/><circle cx="1011" cy="60" r="3.5"/><circle cx="1048" cy="60" r="3.5"/>
  <circle cx="882" cy="76" r="3.5"/><circle cx="919" cy="76" r="3.5"/><circle cx="956" cy="76" r="3.5"/><circle cx="994" cy="76" r="3.5"/><circle cx="1031" cy="76" r="3.5"/>
  <circle cx="863" cy="92" r="3.5"/><circle cx="900" cy="92" r="3.5"/><circle cx="937" cy="92" r="3.5"/><circle cx="974" cy="92" r="3.5"/><circle cx="1011" cy="92" r="3.5"/><circle cx="1048" cy="92" r="3.5"/>
  <circle cx="882" cy="108" r="3.5"/><circle cx="919" cy="108" r="3.5"/><circle cx="956" cy="108" r="3.5"/><circle cx="994" cy="108" r="3.5"/><circle cx="1031" cy="108" r="3.5"/>
  <circle cx="863" cy="124" r="3.5"/><circle cx="900" cy="124" r="3.5"/><circle cx="937" cy="124" r="3.5"/><circle cx="974" cy="124" r="3.5"/><circle cx="1011" cy="124" r="3.5"/><circle cx="1048" cy="124" r="3.5"/>
  <circle cx="882" cy="140" r="3.5"/><circle cx="919" cy="140" r="3.5"/><circle cx="956" cy="140" r="3.5"/><circle cx="994" cy="140" r="3.5"/><circle cx="1031" cy="140" r="3.5"/>
  <circle cx="863" cy="156" r="3.5"/><circle cx="900" cy="156" r="3.5"/><circle cx="937" cy="156" r="3.5"/><circle cx="974" cy="156" r="3.5"/><circle cx="1011" cy="156" r="3.5"/><circle cx="1048" cy="156" r="3.5"/>
</g>

<g transform="translate(205, 220)">
  <g stroke="#E8192C" stroke-width="3" stroke-linecap="round">
    <line x1="0" y1="0" x2="0" y2="-90"/><line x1="0" y1="0" x2="90" y2="0"/>
    <line x1="0" y1="0" x2="0" y2="90"/><line x1="0" y1="0" x2="-90" y2="0"/>
    <line x1="0" y1="0" x2="64" y2="-64"/><line x1="0" y1="0" x2="64" y2="64"/>
    <line x1="0" y1="0" x2="-64" y2="64"/><line x1="0" y1="0" x2="-64" y2="-64"/>
    <line x1="0" y1="0" x2="38" y2="-83"/><line x1="0" y1="0" x2="83" y2="-38"/>
    <line x1="0" y1="0" x2="83" y2="38"/><line x1="0" y1="0" x2="38" y2="83"/>
    <line x1="0" y1="0" x2="-38" y2="83"/><line x1="0" y1="0" x2="-83" y2="38"/>
    <line x1="0" y1="0" x2="-83" y2="-38"/><line x1="0" y1="0" x2="-38" y2="-83"/>
  </g>
  <g fill="#E8192C">
    <circle cx="0" cy="-90" r="4.5"/><circle cx="90" cy="0" r="4.5"/>
    <circle cx="0" cy="90" r="4.5"/><circle cx="-90" cy="0" r="4.5"/>
    <circle cx="64" cy="-64" r="3.5"/><circle cx="64" cy="64" r="3.5"/>
    <circle cx="-64" cy="64" r="3.5"/><circle cx="-64" cy="-64" r="3.5"/>
  </g>
  <circle cx="0" cy="0" r="10" fill="#FF4455"/>
</g>

<g transform="translate(495, 178)">
  <g stroke="#0033A0" stroke-width="2.5" stroke-linecap="round">
    <line x1="0" y1="0" x2="0" y2="-72"/><line x1="0" y1="0" x2="72" y2="0"/>
    <line x1="0" y1="0" x2="0" y2="72"/><line x1="0" y1="0" x2="-72" y2="0"/>
    <line x1="0" y1="0" x2="51" y2="-51"/><line x1="0" y1="0" x2="51" y2="51"/>
    <line x1="0" y1="0" x2="-51" y2="51"/><line x1="0" y1="0" x2="-51" y2="-51"/>
    <line x1="0" y1="0" x2="31" y2="-66"/><line x1="0" y1="0" x2="66" y2="-31"/>
    <line x1="0" y1="0" x2="66" y2="31"/><line x1="0" y1="0" x2="-66" y2="-31"/>
  </g>
  <g fill="#0057B8">
    <circle cx="0" cy="-72" r="4"/><circle cx="72" cy="0" r="4"/>
    <circle cx="0" cy="72" r="4"/><circle cx="-72" cy="0" r="4"/>
    <circle cx="51" cy="-51" r="3"/><circle cx="-51" cy="-51" r="3"/>
  </g>
  <circle cx="0" cy="0" r="8" fill="#3366CC"/>
</g>

<g transform="translate(375, 115)">
  <g stroke="#CC0000" stroke-width="2" stroke-linecap="round">
    <line x1="0" y1="0" x2="0" y2="-52"/><line x1="0" y1="0" x2="52" y2="0"/>
    <line x1="0" y1="0" x2="0" y2="52"/><line x1="0" y1="0" x2="-52" y2="0"/>
    <line x1="0" y1="0" x2="37" y2="-37"/><line x1="0" y1="0" x2="37" y2="37"/>
    <line x1="0" y1="0" x2="-37" y2="37"/><line x1="0" y1="0" x2="-37" y2="-37"/>
  </g>
  <g fill="#FF2233">
    <circle cx="0" cy="-52" r="3"/><circle cx="52" cy="0" r="3"/>
    <circle cx="0" cy="52" r="3"/><circle cx="-52" cy="0" r="3"/>
  </g>
  <circle cx="0" cy="0" r="6" fill="#FF3344"/>
</g>

<g transform="translate(1275, 148)">
  <g stroke="#002080" stroke-width="2" stroke-linecap="round">
    <line x1="0" y1="0" x2="0" y2="-56"/><line x1="0" y1="0" x2="56" y2="0"/>
    <line x1="0" y1="0" x2="0" y2="56"/><line x1="0" y1="0" x2="-56" y2="0"/>
    <line x1="0" y1="0" x2="40" y2="-40"/><line x1="0" y1="0" x2="40" y2="40"/>
    <line x1="0" y1="0" x2="-40" y2="40"/><line x1="0" y1="0" x2="-40" y2="-40"/>
  </g>
  <g fill="#0044CC">
    <circle cx="0" cy="-56" r="3"/><circle cx="56" cy="0" r="3"/>
    <circle cx="0" cy="56" r="3"/><circle cx="-56" cy="0" r="3"/>
  </g>
  <circle cx="0" cy="0" r="6" fill="#2255DD"/>
</g>

<rect x="42" y="290" width="762" height="252" rx="8" fill="#000A24" opacity="0.44"/>
<text x="60" y="382" font-family="Georgia, 'Times New Roman', serif" font-size="68" font-weight="bold" fill="white" letter-spacing="1">INDEPENDENCE DAY</text>
<rect x="60" y="396" width="530" height="5" fill="#E8192C"/>
<text x="60" y="448" font-family="Georgia, 'Times New Roman', serif" font-size="40" fill="white" letter-spacing="2">4th of July · 2026</text>
<text x="60" y="500" font-family="Georgia, 'Times New Roman', serif" font-size="30" fill="#AACCFF" letter-spacing="1">Plantation, Florida</text>
</svg>
